<svg xmlns="http://www.w3.org/2000/svg" viewBox="0 0 326.63 429.55"><g id="Layer_2" data-name="Layer 2"><g id="Layer_1-2" data-name="Layer 1"><path d="M106.18,164c9.35,7,17.18-17.83,35.22-14.78,16.5,2.78,22,18.26,31.52,16.73-22.6,16.53-62.82,14.35-54.34,34.79C101.4,184.82,103.36,170.47,106.18,164Zm-103.37,42C10,198.08,50.1,187,56.62,183.08s-4.24-27.39-2.28-32S61.18,128.62,71,121.8v.06c-3.77-20.42,3.16-94.44,22.81-101.18-.43,16.09,20,47.4,33.92,57.83,3-2.17,21.3-3.48,33-.87C176,72.42,195.1,29,190.32.25c17.33-3.85,63.91,37,71.74,111.74,18.91,7.83,64.19,48.76,64.56,135,.41,93.92-23.33,129-32.6,152,0,0-8.48-35.87-20.87-54.13-24.79,40.44-79.41,99.79-173.49,81.23C170.1,415.61,247.71,313.3,251.19,232.43s-74.89-69.24-74.89-69.24S159,152.1,141.08,141.67c2.28-5.55,6.69-21.13-11.09-24.79-15.33-3.15-25.67,20.22-28.7,40.76-2.51,17.11-20.87,32.94-40.43,35.22,20.68-7.61,48.8-44,25.11-68C83,122.1,60.21,143.3,67.38,153.4s15,18.16-.16,28c-12.24,8-41.91,19.24-41.91,19.24s27.4-2.28,32.29,6.19S49.1,240.15,30.86,248c14,13,33,42.94,116.85,12.29-16,17.6-69.89,32.71-98.27,27.5-1,9.78,9.46,14.67,26.42,13.37S132,292,137.16,288.41C131.62,299.82,95.1,309.6,83,314.49c4.57,16.64,83.81,85.12,3.59,97.83,34.13-8.37,12.61-62.93-14.35-43.69-16.72,11.93,1.52,29.24-4,51.46-15.65-1.63-37.65-15.92-37.54-23.75,21.74-13.91,32.39-67.93,27.82-81.3s-22.93-14.68-31.73-20.87-13.92-28.92-14.9-45.87C3.47,238.84-4.36,213.73,2.81,205.91ZM190.32,103.3c9.78,1.52,28.69,10,31.74,15.21,15.65-8.26,5.21-74.78-17-96.52-4.35,14.35-9.48,49.27-21.65,55.36C194.66,91.34,190.32,103.3,190.32,103.3Zm-112.5,9s17.6-17,28-33.92A65,65,0,0,1,90.44,35.25C80,52.53,77.16,96.66,77.82,112.32Z"/></g></g></svg>