<svg xmlns="http://www.w3.org/2000/svg" viewBox="0 0 326.63 429.55"><defs><style>.cls-1{fill:#fff;}</style></defs><g id="Layer_2" data-name="Layer 2"><g id="Layer_1-2" data-name="Layer 1"><path class="cls-1" d="M208.05,200.69c8.48-20.44-31.74-18.26-54.35-34.79,9.57,1.53,15-14,31.53-16.73,18-3,25.87,21.74,35.22,14.78C223.27,170.47,225.23,184.82,208.05,200.69ZM314.69,248.3c-1,16.95-6.09,39.67-14.9,45.87s-27.17,7.5-31.74,20.87,6.09,67.39,27.83,81.3c.11,7.83-21.89,22.12-37.54,23.75-5.5-22.22,12.74-39.53-4-51.46-27-19.24-48.48,35.32-14.35,43.69-80.22-12.71-1-81.19,3.59-97.83-12.07-4.89-48.59-14.67-54.13-26.08,5.21,3.58,44.34,11.41,61.3,12.72s27.39-3.59,26.41-13.37c-28.37,5.21-82.28-9.9-98.26-27.5,83.81,30.65,102.83.76,116.85-12.29-18.24-7.82-31.63-32.61-26.74-41.09s32.29-6.19,32.29-6.19-29.67-11.23-41.91-19.24c-15.11-9.89-7.33-17.94-.16-28s-15.65-31.3-18.59-28.58c-23.69,24.08,4.43,60.43,25.11,68-19.56-2.28-37.92-18.11-40.43-35.22-3-20.54-13.37-43.91-28.7-40.76-17.78,3.66-13.37,19.24-11.09,24.79-17.93,10.43-35.22,21.52-35.22,21.52S72,151.56,75.44,232.43,156.53,415.61,227,426.05c-94.08,18.56-148.7-40.79-173.49-81.23C41.09,363.08,32.61,399,32.61,399c-9.27-23-33-58-32.6-152,.37-86.24,45.65-127.17,64.56-135C72.4,37.21,119-3.6,136.31.25c-4.78,28.7,14.35,72.17,29.57,77.39,11.74-2.61,30-1.3,33,.87,13.92-10.43,34.35-41.74,33.92-57.83,19.65,6.74,26.58,80.76,22.81,101.18v-.06c9.79,6.82,14.68,24.76,16.63,29.32s-8.8,28-2.28,32,46.63,15,53.81,22.83S323.16,238.84,314.69,248.3Zm-171.51-171c-12.17-6.09-17.3-41-21.65-55.36-22.17,21.74-32.61,88.26-17,96.52,3.05-5.22,22-13.69,31.74-15.21C136.31,103.3,132,91.34,143.18,77.35Zm93-42.1A65,65,0,0,1,220.77,78.4c10.44,17,28,33.92,28,33.92C249.47,96.66,246.62,52.53,236.19,35.25Z"/></g></g></svg>