<svg xmlns="http://www.w3.org/2000/svg" viewBox="0 0 1450.84 429.68"><g id="Layer_2" data-name="Layer 2"><g id="Layer_1-2" data-name="Layer 1"><path d="M208.05,200.69c8.48-20.44-31.74-18.26-54.35-34.79,9.57,1.53,15-14,31.53-16.73,18-3,25.87,21.74,35.22,14.78C223.27,170.47,225.23,184.82,208.05,200.69ZM314.69,248.3c-1,16.95-6.09,39.67-14.9,45.87s-27.17,7.5-31.74,20.87,6.09,67.39,27.83,81.3c.11,7.83-21.89,22.12-37.54,23.75-5.5-22.22,12.74-39.53-4-51.46-27-19.24-48.48,35.32-14.35,43.69-80.22-12.71-1-81.19,3.59-97.83-12.07-4.89-48.59-14.67-54.13-26.08,5.21,3.58,44.34,11.41,61.3,12.72s27.39-3.59,26.41-13.37c-28.37,5.21-82.28-9.9-98.26-27.5,83.81,30.65,102.83.76,116.85-12.29-18.24-7.82-31.63-32.61-26.74-41.09s32.29-6.19,32.29-6.19-29.67-11.23-41.91-19.24c-15.11-9.89-7.33-17.94-.16-28s-15.65-31.3-18.59-28.58c-23.69,24.08,4.43,60.43,25.11,68-19.56-2.28-37.92-18.11-40.43-35.22-3-20.54-13.37-43.91-28.7-40.76-17.78,3.66-13.37,19.24-11.09,24.79-17.93,10.43-35.22,21.52-35.22,21.52S72,151.56,75.44,232.43,156.53,415.61,227,426.05c-94.08,18.56-148.7-40.79-173.49-81.23C41.09,363.08,32.61,399,32.61,399c-9.27-23-33-58-32.6-152,.37-86.24,45.65-127.17,64.56-135C72.4,37.21,119-3.6,136.31.25c-4.78,28.7,14.35,72.17,29.57,77.39,11.74-2.61,30-1.3,33,.87,13.92-10.43,34.35-41.74,33.92-57.83,19.65,6.74,26.58,80.76,22.81,101.18v-.06c9.79,6.82,14.68,24.76,16.63,29.32s-8.8,28-2.28,32,46.63,15,53.81,22.83S323.16,238.84,314.69,248.3Zm-171.51-171c-12.17-6.09-17.3-41-21.65-55.36-22.17,21.74-32.61,88.26-17,96.52,3.05-5.22,22-13.69,31.74-15.21C136.31,103.3,132,91.34,143.18,77.35Zm93-42.1A65,65,0,0,1,220.77,78.4c10.44,17,28,33.92,28,33.92C249.47,96.66,246.62,52.53,236.19,35.25Z"/><path d="M596.19,279.44q0,26.81-9.38,48T563.11,360a63.65,63.65,0,0,1-23.6,11.86q-12.84,3.35-30.42,3.35H457.25V183.32h53.32q18,0,31,3.93a63.45,63.45,0,0,1,21.93,11.14q15.19,12.12,23.94,32.67T596.19,279.44Zm-39.2-.39q0-18.93-5.29-32.4A43.75,43.75,0,0,0,535,225.58a37,37,0,0,0-11.9-5.09q-6.08-1.35-18.32-1.35h-9.58V339.23h9.58q13.53,0,19.85-1.61a37.7,37.7,0,0,0,12.34-5.86,44.66,44.66,0,0,0,15.21-20.69Q557,298.13,557,279.05Z"/><path d="M741.58,302.89q0,35.7-16,56.25t-44.78,20.55q-28.85,0-44.79-20.55t-15.95-56.25q0-35.94,16-56.44T680.85,226q29,0,44.88,20.61T741.58,302.89Zm-43.75,35.18A42.37,42.37,0,0,0,703,324.73q1.72-7.78,1.72-21.58A108.87,108.87,0,0,0,703,281.76,43.39,43.39,0,0,0,698,268a18.66,18.66,0,0,0-7.6-7.47,21.41,21.41,0,0,0-9.58-2.19,22.06,22.06,0,0,0-9.14,1.8c-2.66,1.21-5.22,3.61-7.65,7.22q-3.25,5-5.19,13.79a105.36,105.36,0,0,0-1.92,22,109.73,109.73,0,0,0,1.68,20.55,41.88,41.88,0,0,0,4.93,14,20.21,20.21,0,0,0,7.56,7.35,21.22,21.22,0,0,0,10,2.32,20.93,20.93,0,0,0,9.24-2.13A18.09,18.09,0,0,0,697.83,338.07Z"/><path d="M880,358.56q0,20.35-4.45,34.27t-12.44,21.78a46.57,46.57,0,0,1-19.31,11.53,85.27,85.27,0,0,1-25.52,3.54,143.33,143.33,0,0,1-22.77-1.8,138.31,138.31,0,0,1-19.4-4.38V387.29h4.34a92.28,92.28,0,0,0,15.87,6.12,59.76,59.76,0,0,0,16.77,2.77q9.86,0,16-2.38a20.64,20.64,0,0,0,9.42-6.77,27,27,0,0,0,4.44-10.56A74.91,74.91,0,0,0,844.31,361V358.3a52,52,0,0,1-14.21,10.82,37.39,37.39,0,0,1-17.36,4q-23.28,0-35.9-18.3t-12.62-55.66q0-17.91,3.84-30.93a74.21,74.21,0,0,1,10.85-22.68,46.14,46.14,0,0,1,16-14,41.26,41.26,0,0,1,19.48-5,46.11,46.11,0,0,1,16.32,2.77,47.85,47.85,0,0,1,13.37,7.67l1.29-6.44H880Zm-35.65-29V264a27.86,27.86,0,0,0-7.49-2.64,37.56,37.56,0,0,0-8-1q-14,0-21,10.5t-7,29.32q0,20.87,6,29.12t17.68,8.24A26.37,26.37,0,0,0,835,335.36,36.76,36.76,0,0,0,844.31,329.57Z"/><path d="M1025.94,220.43H958.29v35.69H1021v37.11H958.29v81.95H920.56V183.32h105.38Z"/><path d="M1168.56,302.89q0,35.7-16,56.25t-44.79,20.55q-28.83,0-44.78-20.55t-16-56.25q0-35.94,16.05-56.44T1107.82,226q29,0,44.89,20.61T1168.56,302.89Zm-43.75,35.18a42.37,42.37,0,0,0,5.18-13.34q1.74-7.78,1.73-21.58a108.87,108.87,0,0,0-1.77-21.39A43.64,43.64,0,0,0,1125,268a18.62,18.62,0,0,0-7.61-7.47,21.35,21.35,0,0,0-9.58-2.19,22,22,0,0,0-9.13,1.8q-4,1.81-7.65,7.22-3.27,5-5.19,13.79a105.36,105.36,0,0,0-1.92,22,109.81,109.81,0,0,0,1.67,20.55,41.87,41.87,0,0,0,4.94,14,20.21,20.21,0,0,0,7.56,7.35,21.22,21.22,0,0,0,10,2.32,20.88,20.88,0,0,0,9.23-2.13A18,18,0,0,0,1124.81,338.07Z"/><path d="M1312.46,302.89q0,35.7-15.94,56.25t-44.79,20.55q-28.83,0-44.79-20.55T1191,302.89q0-35.94,16-56.44T1251.73,226q29,0,44.88,20.61T1312.46,302.89Zm-43.74,35.18a42.37,42.37,0,0,0,5.18-13.34q1.72-7.78,1.73-21.58a108,108,0,0,0-1.78-21.39,43.15,43.15,0,0,0-4.94-13.79,18.66,18.66,0,0,0-7.6-7.47,21.38,21.38,0,0,0-9.58-2.19,22.09,22.09,0,0,0-9.14,1.8q-4,1.81-7.65,7.22-3.26,5-5.18,13.79a104.61,104.61,0,0,0-1.93,22,109.73,109.73,0,0,0,1.68,20.55,41.65,41.65,0,0,0,4.94,14A20.11,20.11,0,0,0,1242,345a21.23,21.23,0,0,0,10,2.32,20.92,20.92,0,0,0,9.23-2.13A18.11,18.11,0,0,0,1268.72,338.07Z"/><path d="M1450.84,375.18h-35.65V360.1Q1406,369.9,1398,374.53a36,36,0,0,1-18.45,4.64q-20.22,0-32.35-20.36t-12.13-54.89q0-18.42,4.09-32.66a81.87,81.87,0,0,1,11.2-24.42,48.6,48.6,0,0,1,16.27-15,39,39,0,0,1,19.14-5.35q10,0,16.32,2.77a96.26,96.26,0,0,1,13.07,7v-61.6h35.65Zm-35.65-39.83V264.24a29.23,29.23,0,0,0-7.88-3,35.37,35.37,0,0,0-7.59-.91q-14,0-21,11.42t-7,31.69q0,21.28,5.61,30.9t18,9.62a25.5,25.5,0,0,0,10.25-2.39A33.88,33.88,0,0,0,1415.19,335.35Z"/></g></g></svg>